<svg width="597" height="492" viewBox="0 0 597 492" fill="none" xmlns="http://www.w3.org/2000/svg">
<g clip-path="url(#clip0)">
<path d="M360.2 275.1L502.6 186.4L302 59.7V59.7999L301.1 61.5999V237.3V237.4L360.2 275.1Z" fill="white" stroke="black" stroke-width="5" stroke-linejoin="round"/>
<path d="M591.8 131.1L391.4 4.19995L302 59.7L502.6 186.4L591.8 131.1Z" fill="white" stroke="black" stroke-width="5" stroke-linejoin="round"/>
<path d="M301.1 61.5999L302 59.7999L101.6 184.7L242.6 273.9L301.1 237.4V61.5999Z" fill="white" stroke="black" stroke-width="5" stroke-linejoin="round"/>
<path d="M302 59.8V59.7L217.1 6L16.6 131.1L101.6 184.7L302 59.8Z" fill="white" stroke="black" stroke-width="5" stroke-linejoin="round"/>
<path d="M101.6 184.7L7.9 242.9L101.4 301.8L208.5 369.6L301 312.1V311L242.5 273.8L101.6 184.7Z" fill="white" stroke="black" stroke-width="5" stroke-linejoin="round"/>
<path d="M301.1 237.5V237.4L242.6 273.9L301.1 311.1V310.2V311.1L302 311.7L360.3 275.2L301.1 237.5Z" fill="white" stroke="black" stroke-width="5" stroke-linejoin="round"/>
<path d="M101.6 364L301.1 490.1V312.1L208.6 369.6L101.5 301.8L101.6 364Z" fill="white" stroke="black" stroke-width="5" stroke-linejoin="round"/>
<path d="M502.1 305.5H502.7V305.2L502.1 305.5Z" fill="white" stroke="black" stroke-width="5" stroke-linejoin="round"/>
<path d="M502.7 305.5H502.1L396.2 371.3L302 311.6L301.1 312.1V490.1L302 490.6L502.8 365.8V365.2V305.5H502.7Z" fill="white" stroke="black" stroke-width="5" stroke-linejoin="round"/>
<path d="M502.1 305.5L502.7 304.6L596.6 246.1L502.6 186.4L360.2 275.1L302 311.6L396.3 371.3L502.1 305.5Z" fill="white" stroke="black" stroke-width="5" stroke-linejoin="round"/>
<path d="M101.4 301.8L208.6 369.6L301.1 312.1" fill="white"/>
<path d="M101.4 301.8L208.6 369.6L301.1 312.1" stroke="black" stroke-width="5" stroke-linecap="round" stroke-linejoin="round"/>
<path d="M502.1 305.5L502.7 305.3" stroke="black" stroke-width="5" stroke-linecap="round" stroke-linejoin="round"/>
<path d="M502.1 305.5L502.7 304.6" stroke="black" stroke-width="5" stroke-linecap="round" stroke-linejoin="round"/>
<path d="M502.7 304.6V305.3" stroke="black" stroke-width="5" stroke-linecap="round" stroke-linejoin="round"/>
<path d="M360.2 275.1L502.6 186.4" stroke="black" stroke-width="5" stroke-linecap="round" stroke-linejoin="round"/>
<path d="M502.6 186.4L591.8 131.1L391.4 4.19995L302 59.7" fill="white"/>
<path d="M502.6 186.4L591.8 131.1L391.4 4.19995L302 59.7" stroke="black" stroke-width="5" stroke-linecap="round" stroke-linejoin="round"/>
<path d="M502.6 186.4L596.6 246.1L502.7 304.6" fill="white"/>
<path d="M502.6 186.4L596.6 246.1L502.7 304.6" stroke="black" stroke-width="5" stroke-linecap="round" stroke-linejoin="round"/>
<path d="M301.1 237.3V61.5999L302 59.7999" fill="white"/>
<path d="M301.1 237.3V61.5999L302 59.7999" stroke="black" stroke-width="5" stroke-linecap="round" stroke-linejoin="round"/>
<path d="M302 59.7999V59.7" stroke="black" stroke-width="5" stroke-linecap="round" stroke-linejoin="round"/>
<path d="M101.6 184.7L16.6 131.1L217.1 6L302 59.7" fill="white"/>
<path d="M101.6 184.7L16.6 131.1L217.1 6L302 59.7" stroke="black" stroke-width="5" stroke-linecap="round" stroke-linejoin="round"/>
<path d="M101.6 184.7L7.9 242.9L101.4 301.8" fill="white"/>
<path d="M101.6 184.7L7.9 242.9L101.4 301.8" stroke="black" stroke-width="5" stroke-linecap="round" stroke-linejoin="round"/>
<path d="M301.1 237.3V237.5L360.2 275.1" fill="white"/>
<path d="M301.1 237.3V237.5L360.2 275.1" stroke="black" stroke-width="5" stroke-linecap="round" stroke-linejoin="round"/>
<path d="M301.1 311L302 311.6" stroke="black" stroke-width="5" stroke-linecap="round" stroke-linejoin="round"/>
<path d="M301.1 310.1V311" stroke="black" stroke-width="5" stroke-linecap="round" stroke-linejoin="round"/>
<path d="M301.1 312.1L302 311.6" stroke="black" stroke-width="5" stroke-linecap="round" stroke-linejoin="round"/>
<path d="M301.1 311V312.1" stroke="black" stroke-width="5" stroke-linecap="round" stroke-linejoin="round"/>
<path d="M242.5 273.8L301.1 311" stroke="black" stroke-width="5" stroke-linecap="round" stroke-linejoin="round"/>
<path d="M242.5 273.8L301.1 237.3" stroke="black" stroke-width="5" stroke-linecap="round" stroke-linejoin="round"/>
<path d="M101.6 184.7L242.5 273.8" stroke="black" stroke-width="5" stroke-linecap="round" stroke-linejoin="round"/>
<path d="M101.6 184.7L302 59.7999" stroke="black" stroke-width="5" stroke-linecap="round" stroke-linejoin="round"/>
<path d="M301.1 490.1L302 490.6" stroke="black" stroke-width="5" stroke-linecap="round" stroke-linejoin="round"/>
<path d="M301.1 490.1V491.3L302 490.6" fill="white"/>
<path d="M301.1 490.1V491.3L302 490.6" stroke="black" stroke-width="5" stroke-linecap="round" stroke-linejoin="round"/>
<path d="M101.4 301.8L101.6 364L301.1 490.1" fill="white"/>
<path d="M101.4 301.8L101.6 364L301.1 490.1" stroke="black" stroke-width="5" stroke-linecap="round" stroke-linejoin="round"/>
<path d="M502.7 365.2V365.8" stroke="black" stroke-width="5" stroke-linecap="round" stroke-linejoin="round"/>
<path d="M502.7 365.8L503.1 365.6L502.7 365.2" fill="white"/>
<path d="M502.7 365.8L503.1 365.6L502.7 365.2" stroke="black" stroke-width="5" stroke-linecap="round" stroke-linejoin="round"/>
<path d="M302 59.7L502.6 186.4" stroke="black" stroke-width="5" stroke-linecap="round" stroke-linejoin="round"/>
<path d="M302 490.6L502.7 365.8" stroke="black" stroke-width="5" stroke-linecap="round" stroke-linejoin="round"/>
<path d="M301.1 312.1V490.1" stroke="black" stroke-width="5" stroke-linecap="round" stroke-linejoin="round"/>
<path d="M302 311.6L396.2 371.3L502.1 305.5" fill="white"/>
<path d="M302 311.6L396.2 371.3L502.1 305.5" stroke="black" stroke-width="5" stroke-linecap="round" stroke-linejoin="round"/>
<path d="M302 311.6L360.2 275.1" stroke="black" stroke-width="5" stroke-linecap="round" stroke-linejoin="round"/>
<path d="M502.7 305.3V305.5V365.2" fill="white"/>
<path d="M502.7 305.3V305.5V365.2" stroke="black" stroke-width="5" stroke-linecap="round" stroke-linejoin="round"/>
<path d="M502.7 365.2V305.5" stroke="black" stroke-width="5" stroke-linecap="round" stroke-linejoin="round"/>
<path d="M502.7 305.5V305.3" stroke="black" stroke-width="5" stroke-linecap="round" stroke-linejoin="round"/>
<path d="M388.2 246.4V175.2L348.3 200V271.2L388.2 246.4Z" fill="white" stroke="#DD1166" stroke-width="5" stroke-linecap="round" stroke-linejoin="round"/>
<path d="M348.3 271.3V200L261.9 145.4V216.6L348.3 271.3Z" fill="white" stroke="#DD1166" stroke-width="5" stroke-linecap="round" stroke-linejoin="round"/>
<path d="M388.2 175.2V174.8L302.3 120.4L262 145.5L348.4 200.1L388.2 175.2Z" fill="white" stroke="#DD1166" stroke-width="5" stroke-linecap="round" stroke-linejoin="round"/>
<path d="M261.9 145.5L302.3 120.4L388.2 174.8V175.2" fill="white"/>
<path d="M261.9 145.5L302.3 120.4L388.2 174.8V175.2" stroke="#DD1166" stroke-width="5" stroke-linecap="round" stroke-linejoin="round"/>
<path d="M348.3 271.3L388.2 246.4V175.2" fill="white"/>
<path d="M348.3 271.3L388.2 246.4V175.2" stroke="#DD1166" stroke-width="5" stroke-linecap="round" stroke-linejoin="round"/>
<path d="M348.3 271.3V200" stroke="#DD1166" stroke-width="5" stroke-linecap="round" stroke-linejoin="round"/>
<path d="M261.9 145.5V216.7L348.3 271.3" fill="white"/>
<path d="M261.9 145.5V216.7L348.3 271.3" stroke="#DD1166" stroke-width="5" stroke-linecap="round" stroke-linejoin="round"/>
<path d="M348.3 200L261.9 145.5" stroke="#DD1166" stroke-width="5" stroke-linecap="round" stroke-linejoin="round"/>
<path d="M388.2 175.2L348.3 200" stroke="#DD1166" stroke-width="5" stroke-linecap="round" stroke-linejoin="round"/>
<path d="M495 341.2V255L446.8 285V371.2L495 341.2Z" fill="white" stroke="#DD1166" stroke-width="5" stroke-linecap="round" stroke-linejoin="round"/>
<path d="M446.8 371.2V285L342.3 219V305.2L446.8 371.2Z" fill="white" stroke="#DD1166" stroke-width="5" stroke-linecap="round" stroke-linejoin="round"/>
<path d="M495 255V254.5L391 188.6L342.3 219L446.8 285L495 255Z" fill="white" stroke="#DD1166" stroke-width="5" stroke-linecap="round" stroke-linejoin="round"/>
<path d="M446.8 371.2V285" stroke="#DD1166" stroke-width="5" stroke-linecap="round" stroke-linejoin="round"/>
<path d="M342.3 219V305.2L446.8 371.2" fill="white"/>
<path d="M342.3 219V305.2L446.8 371.2" stroke="#DD1166" stroke-width="5" stroke-linecap="round" stroke-linejoin="round"/>
<path d="M446.8 285L342.3 219" stroke="#DD1166" stroke-width="5" stroke-linecap="round" stroke-linejoin="round"/>
<path d="M495 255L446.8 285" stroke="#DD1166" stroke-width="5" stroke-linecap="round" stroke-linejoin="round"/>
<path d="M326.6 267.9V192.1L284.2 218.5V294.3L326.6 267.9Z" fill="white" stroke="#DD1166" stroke-width="5" stroke-linejoin="round"/>
<path d="M284.2 294.3V218.5L192.3 160.4V236.2L284.2 294.3Z" fill="white" stroke="#DD1166" stroke-width="5" stroke-linejoin="round"/>
<path d="M326.6 192.1V191.6L235.1 133.6L192.2 160.4L284.1 218.5L326.6 192.1Z" fill="white" stroke="#DD1166" stroke-width="5" stroke-linejoin="round"/>
<path d="M284.2 294.3V218.5" stroke="#DD1166" stroke-width="5" stroke-linecap="round" stroke-linejoin="round"/>
<path d="M284.2 218.5L192.2 160.4" stroke="#DD1166" stroke-width="5" stroke-linecap="round" stroke-linejoin="round"/>
<path d="M326.6 192.1L284.2 218.5" stroke="#DD1166" stroke-width="5" stroke-linecap="round" stroke-linejoin="round"/>
<path d="M500 320.1V247.2L459.2 272.6V345.5L500 320.1Z" fill="white" stroke="#DD1166" stroke-width="5" stroke-linejoin="round"/>
<path d="M459.2 345.5V272.6L370.8 216.7V289.6L459.2 345.5Z" fill="white" stroke="#DD1166" stroke-width="5" stroke-linejoin="round"/>
<path d="M500 247.2V246.8L412 191L370.7 216.7L459.1 272.6L500 247.2Z" fill="white" stroke="#DD1166" stroke-width="5" stroke-linejoin="round"/>
<path d="M459.2 345.5V272.6" stroke="#DD1166" stroke-width="5" stroke-linecap="round" stroke-linejoin="round"/>
<path d="M459.2 272.6L370.7 216.7" stroke="#DD1166" stroke-width="5" stroke-linecap="round" stroke-linejoin="round"/>
<path d="M500 247.2L459.2 272.6" stroke="#DD1166" stroke-width="5" stroke-linecap="round" stroke-linejoin="round"/>
<path d="M424.8 370.8V284.3L376.4 314.4V400.9L424.8 370.8Z" fill="white" stroke="#DD1166" stroke-width="5" stroke-linejoin="round"/>
<path d="M376.4 400.9V314.4L271.5 248.2V334.7L376.4 400.9Z" fill="white" stroke="#DD1166" stroke-width="5" stroke-linejoin="round"/>
<path d="M424.8 284.3V283.8L320.4 217.7L271.4 248.2L376.3 314.4L424.8 284.3Z" fill="white" stroke="#DD1166" stroke-width="5" stroke-linejoin="round"/>
<path d="M376.4 400.9V314.5" stroke="#DD1166" stroke-width="5" stroke-linecap="round" stroke-linejoin="round"/>
<path d="M376.4 314.5L271.5 248.2" stroke="#DD1166" stroke-width="5" stroke-linecap="round" stroke-linejoin="round"/>
<path d="M424.8 284.3L376.4 314.5" stroke="#DD1166" stroke-width="5" stroke-linecap="round" stroke-linejoin="round"/>
<path d="M258.4 311.7V240.6L218.6 265.4V336.5L258.4 311.7Z" fill="white" stroke="#DD1166" stroke-width="5" stroke-linejoin="round"/>
<path d="M218.5 336.5V265.4L132.2 210.9V282L218.5 336.5Z" fill="white" stroke="#DD1166" stroke-width="5" stroke-linejoin="round"/>
<path d="M258.4 240.6V240.2L172.5 185.8L132.2 210.9L218.5 265.4L258.4 240.6Z" fill="white" stroke="#DD1166" stroke-width="5" stroke-linejoin="round"/>
<path d="M218.5 336.5V265.3" stroke="#DD1166" stroke-width="5" stroke-linecap="round" stroke-linejoin="round"/>
<path d="M132.2 210.8V282L218.5 336.5" fill="white"/>
<path d="M132.2 210.8V282L218.5 336.5" stroke="#DD1166" stroke-width="5" stroke-linecap="round" stroke-linejoin="round"/>
<path d="M218.5 265.3L132.2 210.8" stroke="#DD1166" stroke-width="5" stroke-linecap="round" stroke-linejoin="round"/>
<path d="M258.4 240.6L218.5 265.3" stroke="#DD1166" stroke-width="5" stroke-linecap="round" stroke-linejoin="round"/>
<path d="M357.8 391.3V320.1L317.9 344.9V416.1L357.8 391.3Z" fill="white" stroke="#DD1166" stroke-width="5"/>
<path d="M317.9 416.1V344.9L231.5 290.3V361.5L317.9 416.1Z" fill="white" stroke="#DD1166" stroke-width="5"/>
<path d="M357.8 320.1V319.7L271.9 265.3L231.6 290.4L318 345L357.8 320.1Z" fill="white" stroke="#DD1166" stroke-width="5"/>
<path d="M231.5 290.4L271.8 265.2L357.8 319.7V320.1" fill="white"/>
<path d="M231.5 290.4L271.8 265.2L357.8 319.7V320.1" stroke="#DD1166" stroke-width="5" stroke-linecap="round" stroke-linejoin="round"/>
<path d="M317.9 416.1L357.8 391.3V320.1" fill="white"/>
<path d="M317.9 416.1L357.8 391.3V320.1" stroke="#DD1166" stroke-width="5" stroke-linecap="round" stroke-linejoin="round"/>
<path d="M317.9 416.1V344.9" stroke="#DD1166" stroke-width="5" stroke-linecap="round" stroke-linejoin="round"/>
<path d="M231.5 290.4V361.6L317.9 416.1" fill="white"/>
<path d="M231.5 290.4V361.6L317.9 416.1" stroke="#DD1166" stroke-width="5" stroke-linecap="round" stroke-linejoin="round"/>
<path d="M317.9 344.9L231.5 290.4" stroke="#DD1166" stroke-width="5" stroke-linecap="round" stroke-linejoin="round"/>
<path d="M357.8 320.1L317.9 344.9" stroke="#DD1166" stroke-width="5" stroke-linecap="round" stroke-linejoin="round"/>
<path d="M591.8 131.1L391.4 4.19995L302 59.7L502.6 186.4L591.8 131.1Z" fill="white"/>
<path d="M302 59.8V59.7L217.1 6L16.6 131.1L101.6 184.7L302 59.8Z" fill="white"/>
<path d="M101.6 184.7L7.9 242.9L101.4 301.8L208.5 369.6L301 312.1V311L242.5 273.8L101.6 184.7Z" fill="white"/>
<path d="M101.6 364L301.1 490.1V312.1L208.6 369.6L101.5 301.8L101.6 364Z" fill="white"/>
<path d="M502.1 305.5H502.7V305.2L502.1 305.5Z" fill="white"/>
<path d="M502.7 305.5H502.1L396.2 371.3L302 311.6L301.1 312.1V490.1L302 490.6L502.8 365.8V365.2V305.5H502.7Z" fill="white"/>
<path d="M502.1 305.5L502.7 304.6L596.6 246.1L502.6 186.4L360.2 275.1L302 311.6L396.3 371.3L502.1 305.5Z" fill="white"/>
<path d="M101.4 301.8L208.6 369.6L301.1 312.1" fill="white"/>
<path d="M101.4 301.8L208.6 369.6L301.1 312.1" stroke="black" stroke-width="5" stroke-linecap="round" stroke-linejoin="round"/>
<path d="M502.1 305.5L502.7 305.3" stroke="black" stroke-width="5" stroke-linecap="round" stroke-linejoin="round"/>
<path d="M502.1 305.5L502.7 304.6" stroke="black" stroke-width="5" stroke-linecap="round" stroke-linejoin="round"/>
<path d="M502.7 304.6V305.3" stroke="black" stroke-width="5" stroke-linecap="round" stroke-linejoin="round"/>
<path d="M360.2 275.1L502.6 186.4" stroke="black" stroke-width="5" stroke-linecap="round" stroke-linejoin="round"/>
<path d="M502.6 186.4L591.8 131.1L391.4 4.19995L302 59.7" fill="white"/>
<path d="M502.6 186.4L591.8 131.1L391.4 4.19995L302 59.7" stroke="black" stroke-width="5" stroke-linecap="round" stroke-linejoin="round"/>
<path d="M502.6 186.4L596.6 246.1L502.7 304.6" fill="white"/>
<path d="M502.6 186.4L596.6 246.1L502.7 304.6" stroke="black" stroke-width="5" stroke-linecap="round" stroke-linejoin="round"/>
<path d="M301.1 61.5999L302 59.7999" stroke="black" stroke-width="5" stroke-linecap="round" stroke-linejoin="round"/>
<path d="M302 59.7999V59.7" stroke="black" stroke-width="5" stroke-linecap="round" stroke-linejoin="round"/>
<path d="M101.6 184.7L16.6 131.1L217.1 6L302 59.7" fill="white"/>
<path d="M101.6 184.7L16.6 131.1L217.1 6L302 59.7" stroke="black" stroke-width="5" stroke-linecap="round" stroke-linejoin="round"/>
<path d="M101.6 184.7L7.9 242.9L101.4 301.8" fill="white"/>
<path d="M101.6 184.7L7.9 242.9L101.4 301.8" stroke="black" stroke-width="5" stroke-linecap="round" stroke-linejoin="round"/>
<path d="M301.1 311L302 311.6" stroke="black" stroke-width="5" stroke-linecap="round" stroke-linejoin="round"/>
<path d="M301.1 310.1V311" stroke="black" stroke-width="5" stroke-linecap="round" stroke-linejoin="round"/>
<path d="M301.1 312.1L302 311.6" stroke="black" stroke-width="5" stroke-linecap="round" stroke-linejoin="round"/>
<path d="M301.1 311V312.1" stroke="black" stroke-width="5" stroke-linecap="round" stroke-linejoin="round"/>
<path d="M242.5 273.8L301.1 311" stroke="black" stroke-width="5" stroke-linecap="round" stroke-linejoin="round"/>
<path d="M101.6 184.7L242.5 273.8" stroke="black" stroke-width="5" stroke-linecap="round" stroke-linejoin="round"/>
<path d="M101.6 184.7L302 59.7999" stroke="black" stroke-width="5" stroke-linecap="round" stroke-linejoin="round"/>
<path d="M301.1 490.1L302 490.6" stroke="black" stroke-width="5" stroke-linecap="round" stroke-linejoin="round"/>
<path d="M301.1 490.1V491.3L302 490.6" fill="white"/>
<path d="M301.1 490.1V491.3L302 490.6" stroke="black" stroke-width="5" stroke-linecap="round" stroke-linejoin="round"/>
<path d="M101.4 301.8L101.6 364L301.1 490.1" fill="white"/>
<path d="M101.4 301.8L101.6 364L301.1 490.1" stroke="black" stroke-width="5" stroke-linecap="round" stroke-linejoin="round"/>
<path d="M502.7 365.2V365.8" stroke="black" stroke-width="5" stroke-linecap="round" stroke-linejoin="round"/>
<path d="M502.7 365.8L503.1 365.6L502.7 365.2" fill="white"/>
<path d="M502.7 365.8L503.1 365.6L502.7 365.2" stroke="black" stroke-width="5" stroke-linecap="round" stroke-linejoin="round"/>
<path d="M302 59.7L502.6 186.4" stroke="black" stroke-width="5" stroke-linecap="round" stroke-linejoin="round"/>
<path d="M302 490.6L502.7 365.8" stroke="black" stroke-width="5" stroke-linecap="round" stroke-linejoin="round"/>
<path d="M301.1 312.1V490.1" stroke="black" stroke-width="5" stroke-linecap="round" stroke-linejoin="round"/>
<path d="M302 311.6L396.2 371.3L502.1 305.5" fill="white"/>
<path d="M302 311.6L396.2 371.3L502.1 305.5" stroke="black" stroke-width="5" stroke-linecap="round" stroke-linejoin="round"/>
<path d="M302 311.6L360.2 275.1" stroke="black" stroke-width="5" stroke-linecap="round" stroke-linejoin="round"/>
<path d="M502.7 305.3V305.5V365.2" fill="white"/>
<path d="M502.7 305.3V305.5V365.2" stroke="black" stroke-width="5" stroke-linecap="round" stroke-linejoin="round"/>
<path d="M502.7 365.2V305.5" stroke="#162C7F" stroke-width="5" stroke-linecap="round" stroke-linejoin="round"/>
<path d="M502.7 305.5V305.3" stroke="#162C7F" stroke-width="5" stroke-linecap="round" stroke-linejoin="round"/>
</g>
<defs>
<clipPath id="clip0">
<rect width="596.6" height="491.3" fill="white"/>
</clipPath>
</defs>
</svg>
